<svg width="251" height="248" viewBox="0 0 251 248" fill="none" xmlns="http://www.w3.org/2000/svg">
<ellipse cx="125.5" cy="124" rx="125.5" ry="124" fill="black"/>
<path d="M93.98 76.3994V74.751L93.1064 75.2684L92.68 75.0006V74.4208L93.98 73.6434V72.5592L92.94 73.1962V72.047L91.9 72.5904V74.1478L91.471 74.4676L91.12 74.179V73.1364L89.6718 73.9476L89.04 73.6876V73.0298L90.5194 72.2056L89.5626 71.7324V71.1292L90.1138 70.8354L91.4684 71.6336L92.407 71.0928L92.3862 71.0772L91.4346 70.526L92.3628 69.9462L91.432 69.4054L90.0774 70.1984L89.5626 69.9462V69.3456L90.483 68.8308L89.0426 68.0378V67.38L89.6458 67.0914L91.1226 67.9234V66.8626L91.51 66.5688L92.0144 66.8756L91.9988 68.4642L92.953 69.0154L92.9608 67.8948L93.98 68.4408V67.3566L92.68 66.5792V66.0046L93.1064 65.7316L93.98 66.249V64.6032L94.4974 64.26L95.02 64.6032V66.249L96.0366 65.7212L96.58 66.0384V66.5558L95.02 67.3566V68.4408L96.06 67.8506V69.0284L97.1 68.4876V66.7924L97.4796 66.5662L97.8826 66.7924V67.8766L99.401 67.0758L99.9626 67.393V68.0066L98.5352 68.8308L99.4452 69.3378V69.9228L98.9694 70.1828L97.5836 69.3612L96.6268 69.9722L97.5498 70.552L96.5982 71.1032L97.5784 71.6206L98.9798 70.8432L99.4452 71.1604V71.7194L98.582 72.2108L99.9652 73.035V73.6824L99.31 73.9528L97.8852 73.1754V74.205L97.49 74.478L97.1052 74.205V72.645L96.0652 72.0704V73.1546L95.0252 72.5644V73.6486L96.3252 74.426V75.0396L95.8962 75.2736L95.0252 74.7562V76.4046L94.5026 76.7452L93.9852 76.4046L93.98 76.3994ZM93.5978 70.5234L94.0892 71.28H95.0018L95.4204 70.5234L94.9784 69.72H94.0658L93.6004 70.5234H93.5978Z" fill="#00A5E7"/>
<path d="M22.3438 84.5H38.875C42.3333 84.5 45.3021 85.0208 47.7812 86.0625C50.2604 87.1042 52.1667 88.6458 53.5 90.6875C54.8333 92.7292 55.5 95.2396 55.5 98.2188C55.5 100.573 55.0833 102.615 54.25 104.344C53.4167 106.073 52.2396 107.521 50.7188 108.688C49.2188 109.854 47.4479 110.771 45.4062 111.438L42.7188 112.812H28.125L28.0625 106.031H38.9688C40.7396 106.031 42.2083 105.719 43.375 105.094C44.5417 104.469 45.4167 103.604 46 102.5C46.6042 101.396 46.9062 100.135 46.9062 98.7188C46.9062 97.1979 46.6146 95.8854 46.0312 94.7812C45.4479 93.6562 44.5625 92.7917 43.375 92.1875C42.1875 91.5833 40.6875 91.2812 38.875 91.2812H30.9375V130H22.3438V84.5ZM48.0312 130L37.5 109.625L46.5938 109.594L57.25 129.562V130H48.0312ZM71.625 84.5V130H63.0312V84.5H71.625ZM98.9375 84.5L80.6875 106.688L70.25 117.844L68.7188 109.5L75.9688 100.094L88.4062 84.5H98.9375ZM89.375 130L75.2188 108.688L81.375 103.125L99.5938 130H89.375Z" fill="#EBEBEB"/>
<path d="M21 140H230.5" stroke="#00A5E7" stroke-width="2"/>
<path d="M26.7305 156.469V172.5H23.4785V153.48H26.6426L26.7305 156.469ZM32.6719 153.375L32.6543 156.398C32.3848 156.34 32.127 156.305 31.8809 156.293C31.6465 156.27 31.377 156.258 31.0723 156.258C30.3223 156.258 29.6602 156.375 29.0859 156.609C28.5117 156.844 28.0254 157.172 27.627 157.594C27.2285 158.016 26.9121 158.52 26.6777 159.105C26.4551 159.68 26.3086 160.312 26.2383 161.004L25.3242 161.531C25.3242 160.383 25.4355 159.305 25.6582 158.297C25.8926 157.289 26.25 156.398 26.7305 155.625C27.2109 154.84 27.8203 154.23 28.5586 153.797C29.3086 153.352 30.1992 153.129 31.2305 153.129C31.4648 153.129 31.7344 153.158 32.0391 153.217C32.3438 153.264 32.5547 153.316 32.6719 153.375ZM43.2188 172.852C41.8945 172.852 40.6934 172.629 39.6152 172.184C38.5488 171.727 37.6289 171.088 36.8555 170.268C36.0938 169.447 35.5078 168.475 35.0977 167.35C34.6875 166.225 34.4824 164.994 34.4824 163.658V162.92C34.4824 161.373 34.7109 159.996 35.168 158.789C35.625 157.57 36.2461 156.539 37.0312 155.695C37.8164 154.852 38.707 154.213 39.7031 153.779C40.6992 153.346 41.7305 153.129 42.7969 153.129C44.1562 153.129 45.3281 153.363 46.3125 153.832C47.3086 154.301 48.123 154.957 48.7559 155.801C49.3887 156.633 49.8574 157.617 50.1621 158.754C50.4668 159.879 50.6191 161.109 50.6191 162.445V163.904H36.416V161.25H47.3672V161.004C47.3203 160.16 47.1445 159.34 46.8398 158.543C46.5469 157.746 46.0781 157.09 45.4336 156.574C44.7891 156.059 43.9102 155.801 42.7969 155.801C42.0586 155.801 41.3789 155.959 40.7578 156.275C40.1367 156.58 39.6035 157.037 39.1582 157.646C38.7129 158.256 38.3672 159 38.1211 159.879C37.875 160.758 37.752 161.771 37.752 162.92V163.658C37.752 164.561 37.875 165.41 38.1211 166.207C38.3789 166.992 38.748 167.684 39.2285 168.281C39.7207 168.879 40.3125 169.348 41.0039 169.688C41.707 170.027 42.5039 170.197 43.3945 170.197C44.543 170.197 45.5156 169.963 46.3125 169.494C47.1094 169.025 47.8066 168.398 48.4043 167.613L50.373 169.178C49.9629 169.799 49.4414 170.391 48.8086 170.953C48.1758 171.516 47.3965 171.973 46.4707 172.324C45.5566 172.676 44.4727 172.852 43.2188 172.852ZM59.2676 172.5H56.0156V151.477C56.0156 150.105 56.2617 148.951 56.7539 148.014C57.2578 147.064 57.9785 146.35 58.916 145.869C59.8535 145.377 60.9668 145.131 62.2559 145.131C62.6309 145.131 63.0059 145.154 63.3809 145.201C63.7676 145.248 64.1426 145.318 64.5059 145.412L64.3301 148.066C64.084 148.008 63.8027 147.967 63.4863 147.943C63.1816 147.92 62.877 147.908 62.5723 147.908C61.8809 147.908 61.2832 148.049 60.7793 148.33C60.2871 148.6 59.9121 148.998 59.6543 149.525C59.3965 150.053 59.2676 150.703 59.2676 151.477V172.5ZM63.3105 153.48V155.977H53.0098V153.48H63.3105ZM70.1836 156.469V172.5H66.9316V153.48H70.0957L70.1836 156.469ZM76.125 153.375L76.1074 156.398C75.8379 156.34 75.5801 156.305 75.334 156.293C75.0996 156.27 74.8301 156.258 74.5254 156.258C73.7754 156.258 73.1133 156.375 72.5391 156.609C71.9648 156.844 71.4785 157.172 71.0801 157.594C70.6816 158.016 70.3652 158.52 70.1309 159.105C69.9082 159.68 69.7617 160.312 69.6914 161.004L68.7773 161.531C68.7773 160.383 68.8887 159.305 69.1113 158.297C69.3457 157.289 69.7031 156.398 70.1836 155.625C70.6641 154.84 71.2734 154.23 72.0117 153.797C72.7617 153.352 73.6523 153.129 74.6836 153.129C74.918 153.129 75.1875 153.158 75.4922 153.217C75.7969 153.264 76.0078 153.316 76.125 153.375ZM82.6641 153.48V172.5H79.3945V153.48H82.6641ZM79.1484 148.436C79.1484 147.908 79.3066 147.463 79.623 147.1C79.9512 146.736 80.4316 146.555 81.0645 146.555C81.6855 146.555 82.1602 146.736 82.4883 147.1C82.8281 147.463 82.998 147.908 82.998 148.436C82.998 148.939 82.8281 149.373 82.4883 149.736C82.1602 150.088 81.6855 150.264 81.0645 150.264C80.4316 150.264 79.9512 150.088 79.623 149.736C79.3066 149.373 79.1484 148.939 79.1484 148.436ZM100.207 153.48H103.16V172.096C103.16 173.771 102.82 175.201 102.141 176.385C101.461 177.568 100.512 178.465 99.293 179.074C98.0859 179.695 96.6914 180.006 95.1094 180.006C94.4531 180.006 93.6797 179.9 92.7891 179.689C91.9102 179.49 91.043 179.145 90.1875 178.652C89.3438 178.172 88.6348 177.521 88.0605 176.701L89.7656 174.768C90.5625 175.729 91.3945 176.396 92.2617 176.771C93.1406 177.146 94.0078 177.334 94.8633 177.334C95.8945 177.334 96.7852 177.141 97.5352 176.754C98.2852 176.367 98.8652 175.793 99.2754 175.031C99.6973 174.281 99.9082 173.355 99.9082 172.254V157.664L100.207 153.48ZM87.1113 163.201V162.832C87.1113 161.379 87.2812 160.061 87.6211 158.877C87.9727 157.682 88.4707 156.656 89.1152 155.801C89.7715 154.945 90.5625 154.289 91.4883 153.832C92.4141 153.363 93.457 153.129 94.6172 153.129C95.8125 153.129 96.8555 153.34 97.7461 153.762C98.6484 154.172 99.4102 154.775 100.031 155.572C100.664 156.357 101.162 157.307 101.525 158.42C101.889 159.533 102.141 160.793 102.281 162.199V163.816C102.152 165.211 101.9 166.465 101.525 167.578C101.162 168.691 100.664 169.641 100.031 170.426C99.4102 171.211 98.6484 171.814 97.7461 172.236C96.8438 172.646 95.7891 172.852 94.582 172.852C93.4453 172.852 92.4141 172.611 91.4883 172.131C90.5742 171.65 89.7891 170.977 89.1328 170.109C88.4766 169.242 87.9727 168.223 87.6211 167.051C87.2812 165.867 87.1113 164.584 87.1113 163.201ZM90.3633 162.832V163.201C90.3633 164.15 90.457 165.041 90.6445 165.873C90.8438 166.705 91.1426 167.438 91.541 168.07C91.9512 168.703 92.4727 169.201 93.1055 169.564C93.7383 169.916 94.4941 170.092 95.373 170.092C96.4512 170.092 97.3418 169.863 98.0449 169.406C98.748 168.949 99.3047 168.346 99.7148 167.596C100.137 166.846 100.465 166.031 100.699 165.152V160.916C100.57 160.271 100.371 159.65 100.102 159.053C99.8438 158.443 99.5039 157.904 99.082 157.436C98.6719 156.955 98.1621 156.574 97.5527 156.293C96.9434 156.012 96.2285 155.871 95.4082 155.871C94.5176 155.871 93.75 156.059 93.1055 156.434C92.4727 156.797 91.9512 157.301 91.541 157.945C91.1426 158.578 90.8438 159.316 90.6445 160.16C90.457 160.992 90.3633 161.883 90.3633 162.832ZM115.992 172.852C114.668 172.852 113.467 172.629 112.389 172.184C111.322 171.727 110.402 171.088 109.629 170.268C108.867 169.447 108.281 168.475 107.871 167.35C107.461 166.225 107.256 164.994 107.256 163.658V162.92C107.256 161.373 107.484 159.996 107.941 158.789C108.398 157.57 109.02 156.539 109.805 155.695C110.59 154.852 111.48 154.213 112.477 153.779C113.473 153.346 114.504 153.129 115.57 153.129C116.93 153.129 118.102 153.363 119.086 153.832C120.082 154.301 120.896 154.957 121.529 155.801C122.162 156.633 122.631 157.617 122.936 158.754C123.24 159.879 123.393 161.109 123.393 162.445V163.904H109.189V161.25H120.141V161.004C120.094 160.16 119.918 159.34 119.613 158.543C119.32 157.746 118.852 157.09 118.207 156.574C117.562 156.059 116.684 155.801 115.57 155.801C114.832 155.801 114.152 155.959 113.531 156.275C112.91 156.58 112.377 157.037 111.932 157.646C111.486 158.256 111.141 159 110.895 159.879C110.648 160.758 110.525 161.771 110.525 162.92V163.658C110.525 164.561 110.648 165.41 110.895 166.207C111.152 166.992 111.521 167.684 112.002 168.281C112.494 168.879 113.086 169.348 113.777 169.688C114.48 170.027 115.277 170.197 116.168 170.197C117.316 170.197 118.289 169.963 119.086 169.494C119.883 169.025 120.58 168.398 121.178 167.613L123.146 169.178C122.736 169.799 122.215 170.391 121.582 170.953C120.949 171.516 120.17 171.973 119.244 172.324C118.33 172.676 117.246 172.852 115.992 172.852ZM130.441 156.469V172.5H127.189V153.48H130.354L130.441 156.469ZM136.383 153.375L136.365 156.398C136.096 156.34 135.838 156.305 135.592 156.293C135.357 156.27 135.088 156.258 134.783 156.258C134.033 156.258 133.371 156.375 132.797 156.609C132.223 156.844 131.736 157.172 131.338 157.594C130.939 158.016 130.623 158.52 130.389 159.105C130.166 159.68 130.02 160.312 129.949 161.004L129.035 161.531C129.035 160.383 129.146 159.305 129.369 158.297C129.604 157.289 129.961 156.398 130.441 155.625C130.922 154.84 131.531 154.23 132.27 153.797C133.02 153.352 133.91 153.129 134.941 153.129C135.176 153.129 135.445 153.158 135.75 153.217C136.055 153.264 136.266 153.316 136.383 153.375ZM149.9 169.248V159.457C149.9 158.707 149.748 158.057 149.443 157.506C149.15 156.943 148.705 156.51 148.107 156.205C147.51 155.9 146.771 155.748 145.893 155.748C145.072 155.748 144.352 155.889 143.73 156.17C143.121 156.451 142.641 156.82 142.289 157.277C141.949 157.734 141.779 158.227 141.779 158.754H138.527C138.527 158.074 138.703 157.4 139.055 156.732C139.406 156.064 139.91 155.461 140.566 154.922C141.234 154.371 142.031 153.938 142.957 153.621C143.895 153.293 144.938 153.129 146.086 153.129C147.469 153.129 148.688 153.363 149.742 153.832C150.809 154.301 151.641 155.01 152.238 155.959C152.848 156.896 153.152 158.074 153.152 159.492V168.352C153.152 168.984 153.205 169.658 153.311 170.373C153.428 171.088 153.598 171.703 153.82 172.219V172.5H150.428C150.264 172.125 150.135 171.627 150.041 171.006C149.947 170.373 149.9 169.787 149.9 169.248ZM150.463 160.969L150.498 163.254H147.211C146.285 163.254 145.459 163.33 144.732 163.482C144.006 163.623 143.396 163.84 142.904 164.133C142.412 164.426 142.037 164.795 141.779 165.24C141.521 165.674 141.393 166.184 141.393 166.77C141.393 167.367 141.527 167.912 141.797 168.404C142.066 168.896 142.471 169.289 143.01 169.582C143.561 169.863 144.234 170.004 145.031 170.004C146.027 170.004 146.906 169.793 147.668 169.371C148.43 168.949 149.033 168.434 149.479 167.824C149.936 167.215 150.182 166.623 150.217 166.049L151.605 167.613C151.523 168.105 151.301 168.65 150.938 169.248C150.574 169.846 150.088 170.42 149.479 170.971C148.881 171.51 148.166 171.961 147.334 172.324C146.514 172.676 145.588 172.852 144.557 172.852C143.268 172.852 142.137 172.6 141.164 172.096C140.203 171.592 139.453 170.918 138.914 170.074C138.387 169.219 138.123 168.264 138.123 167.209C138.123 166.189 138.322 165.293 138.721 164.52C139.119 163.734 139.693 163.084 140.443 162.568C141.193 162.041 142.096 161.643 143.15 161.373C144.205 161.104 145.383 160.969 146.684 160.969H150.463ZM165.879 170.18C166.652 170.18 167.367 170.021 168.023 169.705C168.68 169.389 169.219 168.955 169.641 168.404C170.062 167.842 170.303 167.203 170.361 166.488H173.455C173.396 167.613 173.016 168.662 172.312 169.635C171.621 170.596 170.713 171.375 169.588 171.973C168.463 172.559 167.227 172.852 165.879 172.852C164.449 172.852 163.201 172.6 162.135 172.096C161.08 171.592 160.201 170.9 159.498 170.021C158.807 169.143 158.285 168.135 157.934 166.998C157.594 165.85 157.424 164.637 157.424 163.359V162.621C157.424 161.344 157.594 160.137 157.934 159C158.285 157.852 158.807 156.838 159.498 155.959C160.201 155.08 161.08 154.389 162.135 153.885C163.201 153.381 164.449 153.129 165.879 153.129C167.367 153.129 168.668 153.434 169.781 154.043C170.895 154.641 171.768 155.461 172.4 156.504C173.045 157.535 173.396 158.707 173.455 160.02H170.361C170.303 159.234 170.08 158.525 169.693 157.893C169.318 157.26 168.803 156.756 168.146 156.381C167.502 155.994 166.746 155.801 165.879 155.801C164.883 155.801 164.045 156 163.365 156.398C162.697 156.785 162.164 157.312 161.766 157.98C161.379 158.637 161.098 159.369 160.922 160.178C160.758 160.975 160.676 161.789 160.676 162.621V163.359C160.676 164.191 160.758 165.012 160.922 165.82C161.086 166.629 161.361 167.361 161.748 168.018C162.146 168.674 162.68 169.201 163.348 169.6C164.027 169.986 164.871 170.18 165.879 170.18ZM180.645 153.48V172.5H177.375V153.48H180.645ZM177.129 148.436C177.129 147.908 177.287 147.463 177.604 147.1C177.932 146.736 178.412 146.555 179.045 146.555C179.666 146.555 180.141 146.736 180.469 147.1C180.809 147.463 180.979 147.908 180.979 148.436C180.979 148.939 180.809 149.373 180.469 149.736C180.141 150.088 179.666 150.264 179.045 150.264C178.412 150.264 177.932 150.088 177.604 149.736C177.287 149.373 177.129 148.939 177.129 148.436ZM185.004 163.201V162.797C185.004 161.426 185.203 160.154 185.602 158.982C186 157.799 186.574 156.773 187.324 155.906C188.074 155.027 188.982 154.348 190.049 153.867C191.115 153.375 192.311 153.129 193.635 153.129C194.971 153.129 196.172 153.375 197.238 153.867C198.316 154.348 199.23 155.027 199.98 155.906C200.742 156.773 201.322 157.799 201.721 158.982C202.119 160.154 202.318 161.426 202.318 162.797V163.201C202.318 164.572 202.119 165.844 201.721 167.016C201.322 168.188 200.742 169.213 199.98 170.092C199.23 170.959 198.322 171.639 197.256 172.131C196.201 172.611 195.006 172.852 193.67 172.852C192.334 172.852 191.133 172.611 190.066 172.131C189 171.639 188.086 170.959 187.324 170.092C186.574 169.213 186 168.188 185.602 167.016C185.203 165.844 185.004 164.572 185.004 163.201ZM188.256 162.797V163.201C188.256 164.15 188.367 165.047 188.59 165.891C188.812 166.723 189.146 167.461 189.592 168.105C190.049 168.75 190.617 169.26 191.297 169.635C191.977 169.998 192.768 170.18 193.67 170.18C194.561 170.18 195.34 169.998 196.008 169.635C196.688 169.26 197.25 168.75 197.695 168.105C198.141 167.461 198.475 166.723 198.697 165.891C198.932 165.047 199.049 164.15 199.049 163.201V162.797C199.049 161.859 198.932 160.975 198.697 160.143C198.475 159.299 198.135 158.555 197.678 157.91C197.232 157.254 196.67 156.738 195.99 156.363C195.322 155.988 194.537 155.801 193.635 155.801C192.744 155.801 191.959 155.988 191.279 156.363C190.611 156.738 190.049 157.254 189.592 157.91C189.146 158.555 188.812 159.299 188.59 160.143C188.367 160.975 188.256 161.859 188.256 162.797ZM209.648 157.541V172.5H206.396V153.48H209.473L209.648 157.541ZM208.875 162.27L207.521 162.217C207.533 160.916 207.727 159.715 208.102 158.613C208.477 157.5 209.004 156.533 209.684 155.713C210.363 154.893 211.172 154.26 212.109 153.814C213.059 153.357 214.107 153.129 215.256 153.129C216.193 153.129 217.037 153.258 217.787 153.516C218.537 153.762 219.176 154.16 219.703 154.711C220.242 155.262 220.652 155.977 220.934 156.855C221.215 157.723 221.355 158.783 221.355 160.037V172.5H218.086V160.002C218.086 159.006 217.939 158.209 217.646 157.611C217.354 157.002 216.926 156.562 216.363 156.293C215.801 156.012 215.109 155.871 214.289 155.871C213.48 155.871 212.742 156.041 212.074 156.381C211.418 156.721 210.85 157.189 210.369 157.787C209.9 158.385 209.531 159.07 209.262 159.844C209.004 160.605 208.875 161.414 208.875 162.27Z" fill="#EBEBEB"/>
</svg>
